<svg width="56" height="56" viewBox="0 0 56 56" fill="none" xmlns="http://www.w3.org/2000/svg">
<rect width="56" height="56" rx="10" fill="#C2B4A3"/>
<path fill-rule="evenodd" clip-rule="evenodd" d="M17.5 21.875C17.5 21.3918 17.8918 21 18.375 21H37.625C38.1082 21 38.5 21.3918 38.5 21.875C38.5 22.3582 38.1082 22.75 37.625 22.75H18.375C17.8918 22.75 17.5 22.3582 17.5 21.875ZM17.5 28C17.5 27.5168 17.8918 27.125 18.375 27.125H37.625C38.1082 27.125 38.5 27.5168 38.5 28C38.5 28.4832 38.1082 28.875 37.625 28.875H18.375C17.8918 28.875 17.5 28.4832 17.5 28ZM27.125 34.125C27.125 33.6418 27.5168 33.25 28 33.25H37.625C38.1082 33.25 38.5 33.6418 38.5 34.125C38.5 34.6082 38.1082 35 37.625 35H28C27.5168 35 27.125 34.6082 27.125 34.125Z" fill="#1A1A1A"/>
</svg>
